<svg class="nav_svg" width="24" height="20" viewBox="0 0 24 20" fill="none" xmlns="http://www.w3.org/2000/svg">
<path d="M18.1111 19C18.1111 17.0118 15.3751 15.4 12 15.4C8.62493 15.4 5.88889 17.0118 5.88889 19M23 15.4004C23 13.9242 21.4917 12.6555 19.3333 12.1M1 15.4004C1 13.9242 2.50834 12.6555 4.66667 12.1M19.3333 7.28333C20.0835 6.62414 20.5556 5.6662 20.5556 4.6C20.5556 2.61177 18.9139 1 16.8889 1C15.9498 1 15.0931 1.34662 14.4444 1.91667M4.66667 7.28333C3.91653 6.62414 3.44444 5.6662 3.44444 4.6C3.44444 2.61177 5.08607 1 7.11111 1C8.05021 1 8.90685 1.34662 9.55556 1.91667M12 11.8C9.97496 11.8 8.33333 10.1882 8.33333 8.2C8.33333 6.21177 9.97496 4.6 12 4.6C14.025 4.6 15.6667 6.21177 15.6667 8.2C15.6667 10.1882 14.025 11.8 12 11.8Z" stroke="#8E8E93" stroke-width="2" stroke-linecap="round" stroke-linejoin="round"/>
</svg>
