<svg class="nav_svg" width="24" height="20" viewBox="0 0 24 20" fill="none" xmlns="http://www.w3.org/2000/svg">
<path d="M12 6.75984V19M12 6.75984C12 4.74363 12 3.73594 12.3996 2.96585C12.7512 2.28845 13.3117 1.73753 14.0016 1.39238C14.786 1 15.8129 1 17.8664 1H21.0442C21.7287 1 22.0712 1 22.3327 1.13079C22.5626 1.24584 22.7491 1.42929 22.8663 1.65509C22.9995 1.91178 23 2.24807 23 2.92014V13.4803C23 14.1524 22.9995 14.4879 22.8663 14.7446C22.7491 14.9704 22.563 15.1545 22.3331 15.2695C22.0719 15.4002 21.7301 15.4002 21.0469 15.4002H17.5847C16.4368 15.4002 15.8618 15.4002 15.3408 15.5555C14.8796 15.6931 14.4514 15.9182 14.079 16.2188C13.6583 16.5582 13.3396 17.0271 12.7028 17.9649L12 19M12 6.75984C12 4.74363 11.9998 3.73594 11.6002 2.96585C11.2486 2.28845 10.6877 1.73753 9.99773 1.39238C9.21338 1 8.18638 1 6.13286 1H2.95508C2.27057 1 1.92866 1 1.66721 1.13079C1.43723 1.24584 1.25039 1.42929 1.13321 1.65509C1 1.91178 1 2.24807 1 2.92014V13.4803C1 14.1524 1 14.4879 1.13321 14.7446C1.25039 14.9704 1.43723 15.1545 1.66721 15.2695C1.9284 15.4002 2.2699 15.4002 2.95307 15.4002H6.41533C7.56326 15.4002 8.13707 15.4002 8.65806 15.5555C9.11929 15.6931 9.54959 15.9182 9.92198 16.2188C10.3409 16.5568 10.6577 17.0233 11.2893 17.9535L12 19" stroke="white" stroke-width="2" stroke-linecap="round" stroke-linejoin="round"/>
</svg>
